<svg width="401" height="70" viewBox="0 0 401 70" fill="none" xmlns="http://www.w3.org/2000/svg">
<path d="M73.1094 56H63.6465L63.7051 48.0898H73.1094C75.0625 48.0898 76.7129 47.6211 78.0605 46.6836C79.4277 45.7461 80.4629 44.3496 81.166 42.4941C81.8887 40.6191 82.25 38.3145 82.25 35.5801V33.7344C82.25 31.6836 82.0449 29.8867 81.6348 28.3438C81.2441 26.7812 80.6582 25.4824 79.877 24.4473C79.0957 23.3926 78.1191 22.6016 76.9473 22.0742C75.7949 21.5469 74.4668 21.2832 72.9629 21.2832H63.4707V13.3438H72.9629C75.8535 13.3438 78.5 13.8418 80.9023 14.8379C83.3242 15.8145 85.4141 17.2207 87.1719 19.0566C88.9492 20.873 90.3164 23.0313 91.2734 25.5312C92.25 28.0117 92.7383 30.7656 92.7383 33.793V35.5801C92.7383 38.5879 92.25 41.3418 91.2734 43.8418C90.3164 46.3418 88.959 48.5 87.2012 50.3164C85.4434 52.1328 83.3633 53.5391 80.9609 54.5352C78.5781 55.5117 75.9609 56 73.1094 56ZM69.5352 13.3438V56H59.252V13.3438H69.5352ZM107.592 32.1523V56H97.7188V24.3008H106.947L107.592 32.1523ZM116.967 24.0664L116.791 33.2363C116.4 33.1973 115.873 33.1484 115.209 33.0898C114.545 33.0312 113.988 33.002 113.539 33.002C112.387 33.002 111.391 33.1387 110.551 33.4121C109.73 33.666 109.047 34.0566 108.5 34.584C107.973 35.0918 107.582 35.7363 107.328 36.5176C107.094 37.2988 106.986 38.207 107.006 39.2422L105.219 38.0703C105.219 35.9414 105.424 34.0078 105.834 32.2695C106.264 30.5117 106.869 28.998 107.65 27.7285C108.432 26.4395 109.379 25.4531 110.492 24.7695C111.605 24.0664 112.855 23.7148 114.242 23.7148C114.73 23.7148 115.209 23.7441 115.678 23.8027C116.166 23.8613 116.596 23.9492 116.967 24.0664ZM135.131 56.5859C132.553 56.5859 130.248 56.1855 128.217 55.3848C126.186 54.5645 124.467 53.4414 123.061 52.0156C121.674 50.5898 120.609 48.9492 119.867 47.0938C119.145 45.2383 118.783 43.2754 118.783 41.2051V40.0918C118.783 37.7676 119.105 35.6191 119.75 33.6465C120.395 31.6543 121.352 29.916 122.621 28.4316C123.891 26.9473 125.482 25.7949 127.396 24.9746C129.311 24.1348 131.537 23.7148 134.076 23.7148C136.322 23.7148 138.334 24.0762 140.111 24.7988C141.889 25.5215 143.393 26.5566 144.623 27.9043C145.873 29.252 146.82 30.8828 147.465 32.7969C148.129 34.7109 148.461 36.8594 148.461 39.2422V43.2559H122.562V37.0742H138.822V36.3125C138.842 35.2578 138.656 34.3594 138.266 33.6172C137.895 32.875 137.348 32.3086 136.625 31.918C135.902 31.5273 135.023 31.332 133.988 31.332C132.914 31.332 132.025 31.5664 131.322 32.0352C130.639 32.5039 130.102 33.1484 129.711 33.9688C129.34 34.7695 129.076 35.6973 128.92 36.752C128.764 37.8066 128.686 38.9199 128.686 40.0918V41.2051C128.686 42.377 128.842 43.4414 129.154 44.3984C129.486 45.3555 129.955 46.1758 130.561 46.8594C131.186 47.5234 131.928 48.041 132.787 48.4121C133.666 48.7832 134.662 48.9688 135.775 48.9688C137.123 48.9688 138.451 48.7148 139.76 48.207C141.068 47.6992 142.191 46.8594 143.129 45.6875L147.611 51.0195C146.967 51.9375 146.049 52.8262 144.857 53.6855C143.686 54.5449 142.279 55.248 140.639 55.7949C138.998 56.3223 137.162 56.5859 135.131 56.5859ZM168.939 48.0312V34.9648C168.939 34.0664 168.812 33.2949 168.559 32.6504C168.305 32.0059 167.904 31.5078 167.357 31.1562C166.811 30.7852 166.078 30.5996 165.16 30.5996C164.418 30.5996 163.783 30.7266 163.256 30.9805C162.729 31.2344 162.328 31.6152 162.055 32.123C161.781 32.6309 161.645 33.2754 161.645 34.0566H151.771C151.771 32.5918 152.094 31.2344 152.738 29.9844C153.402 28.7148 154.34 27.6113 155.551 26.6738C156.781 25.7363 158.246 25.0137 159.945 24.5059C161.664 23.9785 163.578 23.7148 165.688 23.7148C168.207 23.7148 170.453 24.1348 172.426 24.9746C174.418 25.8145 175.99 27.0742 177.143 28.7539C178.295 30.4141 178.871 32.5039 178.871 35.0234V48.002C178.871 50.0723 178.988 51.6445 179.223 52.7188C179.457 53.7734 179.789 54.7012 180.219 55.502V56H170.316C169.848 55.0234 169.496 53.832 169.262 52.4258C169.047 51 168.939 49.5352 168.939 48.0312ZM170.141 36.6348L170.199 41.9082H165.834C164.916 41.9082 164.135 42.0352 163.49 42.2891C162.865 42.543 162.357 42.8945 161.967 43.3438C161.596 43.7734 161.322 44.2617 161.146 44.8086C160.99 45.3555 160.912 45.9316 160.912 46.5371C160.912 47.123 161.049 47.6504 161.322 48.1191C161.615 48.5684 162.006 48.9199 162.494 49.1738C162.982 49.4277 163.529 49.5547 164.135 49.5547C165.229 49.5547 166.156 49.3496 166.918 48.9395C167.699 48.5098 168.295 47.9922 168.705 47.3867C169.115 46.7812 169.32 46.2148 169.32 45.6875L171.488 49.7305C171.098 50.5117 170.648 51.3027 170.141 52.1035C169.652 52.9043 169.037 53.6465 168.295 54.3301C167.572 54.9941 166.684 55.541 165.629 55.9707C164.574 56.3809 163.295 56.5859 161.791 56.5859C159.838 56.5859 158.041 56.1855 156.4 55.3848C154.779 54.584 153.48 53.4707 152.504 52.0449C151.527 50.5996 151.039 48.9395 151.039 47.0645C151.039 45.4238 151.332 43.959 151.918 42.6699C152.523 41.3809 153.432 40.2871 154.643 39.3887C155.854 38.4902 157.396 37.8066 159.271 37.3379C161.146 36.8691 163.354 36.6348 165.893 36.6348H170.141ZM194.311 31.0098V56H184.438V24.3008H193.695L194.311 31.0098ZM193.109 39.0664L190.854 39.125C190.854 36.8984 191.117 34.8477 191.645 32.9727C192.172 31.0977 192.953 29.4668 193.988 28.0801C195.023 26.6934 196.293 25.6191 197.797 24.8574C199.32 24.0957 201.078 23.7148 203.07 23.7148C204.457 23.7148 205.717 23.9297 206.85 24.3594C207.982 24.7695 208.959 25.4238 209.779 26.3223C210.6 27.2012 211.225 28.3535 211.654 29.7793C212.104 31.1855 212.328 32.875 212.328 34.8477V56H202.455V36.1074C202.455 34.7598 202.299 33.7441 201.986 33.0605C201.693 32.377 201.264 31.918 200.697 31.6836C200.131 31.4492 199.438 31.332 198.617 31.332C197.758 31.332 196.986 31.5273 196.303 31.918C195.619 32.3086 195.033 32.8555 194.545 33.5586C194.076 34.2422 193.715 35.0527 193.461 35.9902C193.227 36.9277 193.109 37.9531 193.109 39.0664ZM211.215 39.0664L208.461 39.125C208.461 36.8984 208.705 34.8477 209.193 32.9727C209.701 31.0977 210.453 29.4668 211.449 28.0801C212.465 26.6934 213.725 25.6191 215.229 24.8574C216.732 24.0957 218.48 23.7148 220.473 23.7148C221.918 23.7148 223.246 23.9297 224.457 24.3594C225.668 24.7891 226.713 25.4824 227.592 26.4395C228.471 27.3965 229.154 28.666 229.643 30.248C230.131 31.8105 230.375 33.7441 230.375 36.0488V56H220.473V36.0488C220.473 34.7402 220.316 33.7539 220.004 33.0898C219.711 32.4062 219.281 31.9473 218.715 31.7129C218.148 31.459 217.475 31.332 216.693 31.332C215.756 31.332 214.945 31.5273 214.262 31.918C213.578 32.3086 213.002 32.8555 212.533 33.5586C212.084 34.2422 211.752 35.0527 211.537 35.9902C211.322 36.9277 211.215 37.9531 211.215 39.0664ZM258.471 44.6621C258.471 43.998 258.373 43.4023 258.178 42.875C257.982 42.3281 257.621 41.8203 257.094 41.3516C256.566 40.8828 255.805 40.4141 254.809 39.9453C253.832 39.457 252.543 38.9492 250.941 38.4219C249.066 37.7969 247.26 37.0938 245.521 36.3125C243.783 35.5117 242.23 34.584 240.863 33.5293C239.496 32.4551 238.412 31.2051 237.611 29.7793C236.811 28.334 236.41 26.6543 236.41 24.7402C236.41 22.9043 236.82 21.2539 237.641 19.7891C238.461 18.3047 239.604 17.0449 241.068 16.0098C242.553 14.9551 244.291 14.1543 246.283 13.6074C248.275 13.041 250.453 12.7578 252.816 12.7578C255.941 12.7578 258.695 13.3047 261.078 14.3984C263.48 15.4727 265.355 17.0059 266.703 18.998C268.07 20.9707 268.754 23.3047 268.754 26H258.529C258.529 24.9258 258.305 23.9785 257.855 23.1582C257.426 22.3379 256.771 21.6934 255.893 21.2246C255.014 20.7559 253.91 20.5215 252.582 20.5215C251.293 20.5215 250.209 20.7168 249.33 21.1074C248.451 21.498 247.787 22.0254 247.338 22.6895C246.889 23.334 246.664 24.0469 246.664 24.8281C246.664 25.4727 246.84 26.0586 247.191 26.5859C247.562 27.0938 248.08 27.5723 248.744 28.0215C249.428 28.4707 250.248 28.9004 251.205 29.3105C252.182 29.7207 253.275 30.1211 254.486 30.5117C256.752 31.2344 258.764 32.0449 260.521 32.9434C262.299 33.8223 263.793 34.8281 265.004 35.9609C266.234 37.0742 267.162 38.3438 267.787 39.7695C268.432 41.1953 268.754 42.8066 268.754 44.6035C268.754 46.5176 268.383 48.2168 267.641 49.7012C266.898 51.1855 265.834 52.4453 264.447 53.4805C263.061 54.4961 261.4 55.2676 259.467 55.7949C257.533 56.3223 255.375 56.5859 252.992 56.5859C250.805 56.5859 248.646 56.3125 246.518 55.7656C244.408 55.1992 242.494 54.3398 240.775 53.1875C239.057 52.0156 237.68 50.5215 236.645 48.7051C235.629 46.8691 235.121 44.6914 235.121 42.1719H245.434C245.434 43.4219 245.6 44.4766 245.932 45.3359C246.264 46.1953 246.752 46.8887 247.396 47.416C248.041 47.9238 248.832 48.2949 249.77 48.5293C250.707 48.7441 251.781 48.8516 252.992 48.8516C254.301 48.8516 255.355 48.666 256.156 48.2949C256.957 47.9043 257.543 47.3965 257.914 46.7715C258.285 46.127 258.471 45.4238 258.471 44.6621ZM286.977 48.9688C287.895 48.9688 288.676 48.8027 289.32 48.4707C289.984 48.1191 290.482 47.6309 290.814 47.0059C291.166 46.3613 291.332 45.5898 291.312 44.6914H300.6C300.619 47.0742 300.033 49.1641 298.842 50.9609C297.67 52.7383 296.068 54.125 294.037 55.1211C292.025 56.0977 289.75 56.5859 287.211 56.5859C284.73 56.5859 282.562 56.1855 280.707 55.3848C278.852 54.5645 277.299 53.4316 276.049 51.9863C274.818 50.5215 273.891 48.8125 273.266 46.8594C272.66 44.9062 272.357 42.7871 272.357 40.502V39.8281C272.357 37.543 272.66 35.4238 273.266 33.4707C273.891 31.498 274.818 29.7891 276.049 28.3438C277.299 26.8789 278.842 25.7461 280.678 24.9453C282.533 24.125 284.691 23.7148 287.152 23.7148C289.789 23.7148 292.113 24.2129 294.125 25.209C296.156 26.2051 297.748 27.6504 298.9 29.5449C300.053 31.4395 300.619 33.7344 300.6 36.4297H291.312C291.332 35.4727 291.186 34.6133 290.873 33.8516C290.561 33.0898 290.072 32.4844 289.408 32.0352C288.764 31.5664 287.934 31.332 286.918 31.332C285.902 31.332 285.082 31.5566 284.457 32.0059C283.832 32.4551 283.354 33.0801 283.021 33.8809C282.709 34.6621 282.494 35.5605 282.377 36.5762C282.279 37.5918 282.23 38.6758 282.23 39.8281V40.502C282.23 41.6738 282.279 42.7773 282.377 43.8125C282.494 44.8281 282.719 45.7266 283.051 46.5078C283.383 47.2695 283.861 47.875 284.486 48.3242C285.111 48.7539 285.941 48.9688 286.977 48.9688ZM321.283 48.0312V34.9648C321.283 34.0664 321.156 33.2949 320.902 32.6504C320.648 32.0059 320.248 31.5078 319.701 31.1562C319.154 30.7852 318.422 30.5996 317.504 30.5996C316.762 30.5996 316.127 30.7266 315.6 30.9805C315.072 31.2344 314.672 31.6152 314.398 32.123C314.125 32.6309 313.988 33.2754 313.988 34.0566H304.115C304.115 32.5918 304.438 31.2344 305.082 29.9844C305.746 28.7148 306.684 27.6113 307.895 26.6738C309.125 25.7363 310.59 25.0137 312.289 24.5059C314.008 23.9785 315.922 23.7148 318.031 23.7148C320.551 23.7148 322.797 24.1348 324.77 24.9746C326.762 25.8145 328.334 27.0742 329.486 28.7539C330.639 30.4141 331.215 32.5039 331.215 35.0234V48.002C331.215 50.0723 331.332 51.6445 331.566 52.7188C331.801 53.7734 332.133 54.7012 332.562 55.502V56H322.66C322.191 55.0234 321.84 53.832 321.605 52.4258C321.391 51 321.283 49.5352 321.283 48.0312ZM322.484 36.6348L322.543 41.9082H318.178C317.26 41.9082 316.479 42.0352 315.834 42.2891C315.209 42.543 314.701 42.8945 314.311 43.3438C313.939 43.7734 313.666 44.2617 313.49 44.8086C313.334 45.3555 313.256 45.9316 313.256 46.5371C313.256 47.123 313.393 47.6504 313.666 48.1191C313.959 48.5684 314.35 48.9199 314.838 49.1738C315.326 49.4277 315.873 49.5547 316.479 49.5547C317.572 49.5547 318.5 49.3496 319.262 48.9395C320.043 48.5098 320.639 47.9922 321.049 47.3867C321.459 46.7812 321.664 46.2148 321.664 45.6875L323.832 49.7305C323.441 50.5117 322.992 51.3027 322.484 52.1035C321.996 52.9043 321.381 53.6465 320.639 54.3301C319.916 54.9941 319.027 55.541 317.973 55.9707C316.918 56.3809 315.639 56.5859 314.135 56.5859C312.182 56.5859 310.385 56.1855 308.744 55.3848C307.123 54.584 305.824 53.4707 304.848 52.0449C303.871 50.5996 303.383 48.9395 303.383 47.0645C303.383 45.4238 303.676 43.959 304.262 42.6699C304.867 41.3809 305.775 40.2871 306.986 39.3887C308.197 38.4902 309.74 37.8066 311.615 37.3379C313.49 36.8691 315.697 36.6348 318.236 36.6348H322.484ZM346.654 30.3945V68.1875H336.781V24.3008H345.98L346.654 30.3945ZM366.107 39.7695V40.3848C366.107 42.6895 365.844 44.8281 365.316 46.8008C364.789 48.7734 364.008 50.4922 362.973 51.957C361.938 53.4219 360.648 54.5645 359.105 55.3848C357.582 56.1855 355.814 56.5859 353.803 56.5859C351.908 56.5859 350.277 56.166 348.91 55.3262C347.543 54.4863 346.4 53.3242 345.482 51.8398C344.564 50.3555 343.822 48.6562 343.256 46.7422C342.689 44.8281 342.24 42.8066 341.908 40.6777V39.8867C342.24 37.6016 342.689 35.4824 343.256 33.5293C343.822 31.5566 344.564 29.8379 345.482 28.373C346.4 26.9082 347.533 25.7656 348.881 24.9453C350.248 24.125 351.879 23.7148 353.773 23.7148C355.785 23.7148 357.553 24.0957 359.076 24.8574C360.619 25.6191 361.908 26.7129 362.943 28.1387C363.998 29.5449 364.789 31.2344 365.316 33.207C365.844 35.1797 366.107 37.3672 366.107 39.7695ZM356.234 40.3848V39.7695C356.234 38.5391 356.146 37.416 355.971 36.4004C355.795 35.3652 355.512 34.4668 355.121 33.7051C354.75 32.9434 354.252 32.3574 353.627 31.9473C353.002 31.5371 352.23 31.332 351.312 31.332C350.258 31.332 349.369 31.498 348.646 31.8301C347.943 32.1426 347.377 32.6309 346.947 33.2949C346.537 33.9395 346.244 34.75 346.068 35.7266C345.912 36.6836 345.844 37.8066 345.863 39.0957V41.498C345.824 42.9824 345.971 44.291 346.303 45.4238C346.635 46.5371 347.211 47.4062 348.031 48.0312C348.852 48.6562 349.965 48.9688 351.371 48.9688C352.309 48.9688 353.09 48.7539 353.715 48.3242C354.34 47.875 354.838 47.2598 355.209 46.4785C355.58 45.6777 355.844 44.7598 356 43.7246C356.156 42.6895 356.234 41.5762 356.234 40.3848ZM385.854 56.5859C383.275 56.5859 380.971 56.1855 378.939 55.3848C376.908 54.5645 375.189 53.4414 373.783 52.0156C372.396 50.5898 371.332 48.9492 370.59 47.0938C369.867 45.2383 369.506 43.2754 369.506 41.2051V40.0918C369.506 37.7676 369.828 35.6191 370.473 33.6465C371.117 31.6543 372.074 29.916 373.344 28.4316C374.613 26.9473 376.205 25.7949 378.119 24.9746C380.033 24.1348 382.26 23.7148 384.799 23.7148C387.045 23.7148 389.057 24.0762 390.834 24.7988C392.611 25.5215 394.115 26.5566 395.346 27.9043C396.596 29.252 397.543 30.8828 398.188 32.7969C398.852 34.7109 399.184 36.8594 399.184 39.2422V43.2559H373.285V37.0742H389.545V36.3125C389.564 35.2578 389.379 34.3594 388.988 33.6172C388.617 32.875 388.07 32.3086 387.348 31.918C386.625 31.5273 385.746 31.332 384.711 31.332C383.637 31.332 382.748 31.5664 382.045 32.0352C381.361 32.5039 380.824 33.1484 380.434 33.9688C380.062 34.7695 379.799 35.6973 379.643 36.752C379.486 37.8066 379.408 38.9199 379.408 40.0918V41.2051C379.408 42.377 379.564 43.4414 379.877 44.3984C380.209 45.3555 380.678 46.1758 381.283 46.8594C381.908 47.5234 382.65 48.041 383.51 48.4121C384.389 48.7832 385.385 48.9688 386.498 48.9688C387.846 48.9688 389.174 48.7148 390.482 48.207C391.791 47.6992 392.914 46.8594 393.852 45.6875L398.334 51.0195C397.689 51.9375 396.771 52.8262 395.58 53.6855C394.408 54.5449 393.002 55.248 391.361 55.7949C389.721 56.3223 387.885 56.5859 385.854 56.5859Z" fill="url(#paint0_linear_24_47)"/>
<path d="M-2.01072e-06 35C-2.32798e-06 31.371 0.858733 27.7935 2.50602 24.5599C4.1533 21.3262 6.54237 18.5283 9.47797 16.3948C12.4136 14.2612 15.8124 12.8526 19.3966 12.284C22.9808 11.7155 26.6487 12.0031 30.1004 13.1234C33.5522 14.2438 36.6898 16.165 39.257 18.7301C41.8241 21.2951 43.7478 24.4313 44.8709 27.8822C45.994 31.333 46.2845 35.0007 45.7188 38.5853C45.1531 42.17 43.7472 45.5699 41.616 48.5072L23 35L-2.01072e-06 35Z" fill="#FF9900"/>
<defs>
<linearGradient id="paint0_linear_24_47" x1="56" y1="35" x2="401" y2="35" gradientUnits="userSpaceOnUse">
<stop stop-color="#FF9900"/>
<stop offset="1" stop-color="#00CCFF"/>
</linearGradient>
</defs>
</svg>
