<svg width="40" height="33" viewBox="0 0 40 33" fill="none" xmlns="http://www.w3.org/2000/svg">
<g clip-path="url(#clip0_187_179)">
<path d="M0 1.54688C0 0.689648 0.743056 0 1.66667 0H4.82639C6.35417 0 7.70833 0.825 8.34028 2.0625H36.8819C38.7083 2.0625 40.0417 3.67383 39.5625 5.31094L36.7153 15.1271C36.125 17.151 34.1458 18.5625 31.8889 18.5625H11.8542L12.2292 20.3994C12.3819 21.1277 13.0694 21.6562 13.8681 21.6562H33.8889C34.8125 21.6562 35.5556 22.3459 35.5556 23.2031C35.5556 24.0604 34.8125 24.75 33.8889 24.75H13.8681C11.4653 24.75 9.40278 23.1645 8.95833 20.9795L5.375 3.5127C5.32639 3.26777 5.09722 3.09375 4.82639 3.09375H1.66667C0.743056 3.09375 0 2.4041 0 1.54688ZM8.88889 29.9062C8.88889 29.5 8.97511 29.0977 9.14262 28.7223C9.31014 28.347 9.55567 28.0059 9.8652 27.7186C10.1747 27.4314 10.5422 27.2035 10.9466 27.048C11.351 26.8925 11.7845 26.8125 12.2222 26.8125C12.66 26.8125 13.0934 26.8925 13.4978 27.048C13.9023 27.2035 14.2697 27.4314 14.5792 27.7186C14.8888 28.0059 15.1343 28.347 15.3018 28.7223C15.4693 29.0977 15.5556 29.5 15.5556 29.9062C15.5556 30.3125 15.4693 30.7148 15.3018 31.0902C15.1343 31.4655 14.8888 31.8066 14.5792 32.0939C14.2697 32.3811 13.9023 32.609 13.4978 32.7645C13.0934 32.92 12.66 33 12.2222 33C11.7845 33 11.351 32.92 10.9466 32.7645C10.5422 32.609 10.1747 32.3811 9.8652 32.0939C9.55567 31.8066 9.31014 31.4655 9.14262 31.0902C8.97511 30.7148 8.88889 30.3125 8.88889 29.9062ZM32.2222 26.8125C33.1063 26.8125 33.9541 27.1384 34.5792 27.7186C35.2044 28.2988 35.5556 29.0857 35.5556 29.9062C35.5556 30.7268 35.2044 31.5137 34.5792 32.0939C33.9541 32.6741 33.1063 33 32.2222 33C31.3382 33 30.4903 32.6741 29.8652 32.0939C29.2401 31.5137 28.8889 30.7268 28.8889 29.9062C28.8889 29.0857 29.2401 28.2988 29.8652 27.7186C30.4903 27.1384 31.3382 26.8125 32.2222 26.8125Z" fill="#FF9900"/>
</g>
<defs>
<clipPath id="clip0_187_179">
<rect width="39.6608" height="33" fill="white"/>
</clipPath>
</defs>
</svg>
